<?xml version="1.0" standalone="no"?>
<!DOCTYPE svg PUBLIC "-//W3C//DTD SVG 20010904//EN"
 "http://www.w3.org/TR/2001/REC-SVG-20010904/DTD/svg10.dtd">
<svg version="1.0" xmlns="http://www.w3.org/2000/svg"
 width="294.000000pt" height="297.000000pt" viewBox="0 0 294.000000 297.000000"
 preserveAspectRatio="xMidYMid meet">

<g transform="translate(0.000000,297.000000) scale(0.100000,-0.100000)"
fill="#000000" stroke="none">
<path d="M1281 2950 c-492 -62 -910 -360 -1126 -803 -68 -140 -104 -252 -131
-407 -23 -134 -15 -429 15 -550 25 -101 58 -204 78 -242 7 -15 13 -31 12 -34
0 -4 3 -10 8 -13 5 -3 26 -37 47 -76 201 -370 569 -637 994 -722 122 -24 413
-24 535 0 385 77 717 299 937 626 99 147 182 361 217 556 22 124 21 351 -1
480 -35 194 -117 398 -229 565 -74 110 -271 303 -393 383 -166 110 -335 180
-524 218 -112 22 -335 32 -439 19z m90 -380 c132 -50 198 -158 199 -326 1
-178 -98 -283 -327 -348 -51 -14 -110 -37 -130 -50 -86 -55 -203 -204 -228
-290 -9 -31 -19 -132 -25 -259 -13 -277 -34 -373 -97 -447 -56 -68 -211 -109
-332 -89 -169 27 -241 114 -249 302 -4 97 -4 100 32 172 50 101 104 146 300
247 190 98 273 167 324 270 47 96 53 141 51 367 -3 190 -1 211 20 274 36 111
98 164 225 193 74 16 169 10 237 -16z m826 4 c114 -31 185 -114 210 -247 29
-150 -5 -253 -112 -340 -46 -37 -80 -54 -145 -73 -192 -58 -235 -83 -319 -191
-107 -137 -114 -162 -130 -488 -11 -207 -26 -285 -69 -355 -52 -85 -148 -125
-297 -124 -75 0 -99 4 -145 26 -115 52 -165 143 -165 298 0 76 4 93 33 152 47
95 113 151 286 239 77 39 159 84 181 99 55 38 129 119 155 170 51 100 53 114
60 370 7 260 15 310 63 381 31 45 116 88 197 97 76 9 125 6 197 -14z m153
-1174 c106 -54 160 -120 186 -227 17 -75 17 -108 -1 -169 -32 -109 -121 -196
-234 -228 -73 -21 -126 -20 -206 5 -110 34 -202 140 -225 258 -25 135 50 290
172 352 68 35 88 39 178 36 65 -3 96 -9 130 -27z"/>
</g>
</svg>
